# xmcd CD database file
#
# Track frame offsets:
#	150
#	13180
#	30321
#	46242
#	59873
#	76064
#	90833
#	104067
#	116830
#	133088
#	147638
#	160092
#	173074
#	188643
#	200158
#	215272
#	227210
#	243842
#	256324
#	269337
#
# Disc length: 3736 seconds
#
# Revision: 3
# Processed by: cddbd v1.5.2PL0 Copyright (c) Steve Scherf et al.
# Submitted via: CDex 1.50beta9
#
DISCID=1c0e9614
DTITLE=Billie Jo Spears - The Best Of Billie Jo Spears
DYEAR=2005
DGENRE=Country
TTITLE0=What The World Needs Now Is Love
TTITLE1=For The Good Times
TTITLE2=I Fall To Pieces
TTITLE3=Heartaches By The Number
TTITLE4=Always On My Mind
TTITLE5=(Hey Won't You Play) Another Somebody Done Somebody Wrong Song
TTITLE6=Everytime Two Fools Collide
TTITLE7=(I Never Promised You A) Rose Garden
TTITLE8=Blanket On The Ground
TTITLE9=Harper Valley P.T.A.
TTITLE10=What I've Got In Mind
TTITLE11='57 Chevrolet
TTITLE12=Sing Me An Old Fashioned Song
TTITLE13=Stand By Your Man
TTITLE14=I Will Survive
TTITLE15=Misty Blue
TTITLE16=Bridge Over Troubled Water
TTITLE17=Help Me Make It Through The Night
TTITLE18=I Love You Because
TTITLE19=Paper Roses
EXTD=YEAR: 2005
EXTT0=
EXTT1=
EXTT2=
EXTT3=
EXTT4=
EXTT5=
EXTT6=
EXTT7=
EXTT8=
EXTT9=
EXTT10=
EXTT11=
EXTT12=
EXTT13=
EXTT14=
EXTT15=
EXTT16=
EXTT17=
EXTT18=
EXTT19=
PLAYORDER=
